<?xml version="1.0" encoding="utf-8"?>
<!-- Generator: Adobe Illustrator 16.0.0, SVG Export Plug-In . SVG Version: 6.00 Build 0)  -->
<!DOCTYPE svg PUBLIC "-//W3C//DTD SVG 1.1//EN" "http://www.w3.org/Graphics/SVG/1.1/DTD/svg11.dtd">
<svg version="1.1" id="Layer_1" xmlns="http://www.w3.org/2000/svg" xmlns:xlink="http://www.w3.org/1999/xlink" x="0px" y="0px"
	 width="370px" height="100px" viewBox="327 250 370 100" enable-background="new 327 250 370 100" xml:space="preserve">
<g>
	<path fill="#FFFFFF" d="M409.817,306.795c1.401,0.207,2.55,0.342,3.446,0.406c0.897,0.065,1.607,0.1,2.13,0.1
		c0.822,0,1.363-0.065,1.626-0.197c0.261-0.13,0.392-0.309,0.392-0.532c0-0.242-0.141-0.424-0.42-0.547
		c-0.28-0.121-0.859-0.248-1.737-0.379c-1.944-0.26-3.472-0.82-4.583-1.682c-1.112-0.857-1.667-2.072-1.667-3.643
		c0-0.728,0.131-1.405,0.392-2.031c0.261-0.625,0.683-1.166,1.261-1.625c0.579-0.458,1.322-0.817,2.229-1.08
		c0.905-0.262,1.993-0.391,3.265-0.391c1.382,0,2.628,0.079,3.74,0.238c1.111,0.16,2.032,0.362,2.761,0.607v3.806
		c-0.896-0.111-1.803-0.207-2.719-0.281c-0.915-0.074-1.784-0.111-2.606-0.111c-0.785,0-1.34,0.057-1.667,0.168
		c-0.327,0.112-0.491,0.279-0.491,0.502c0,0.112,0.029,0.21,0.085,0.295c0.056,0.084,0.162,0.159,0.321,0.224
		c0.16,0.064,0.379,0.121,0.659,0.167c0.28,0.047,0.635,0.089,1.065,0.127c2.167,0.204,3.764,0.735,4.792,1.593
		c1.027,0.857,1.541,2.078,1.541,3.664c0,1.657-0.57,2.967-1.709,3.928c-1.14,0.96-2.924,1.438-5.353,1.438
		c-1.42,0-2.713-0.082-3.881-0.251c-1.168-0.167-2.125-0.373-2.873-0.615V306.795z"/>
	<path fill="#FFFFFF" d="M434.505,309.262c-0.168,0.224-0.392,0.471-0.672,0.741c-0.281,0.271-0.622,0.519-1.022,0.743
		c-0.402,0.225-0.869,0.418-1.402,0.575c-0.532,0.158-1.134,0.236-1.808,0.236c-1.625,0-2.896-0.373-3.811-1.119
		c-0.916-0.747-1.373-1.831-1.373-3.251c0-1.774,0.826-3.116,2.479-4.021c1.653-0.906,4.189-1.359,7.608-1.359
		c0-0.521-0.168-0.924-0.504-1.205c-0.336-0.28-1.027-0.421-2.073-0.421c-1.121,0-2.247,0.085-3.377,0.253s-2.171,0.356-3.125,0.561
		v-4.819c0.954-0.261,2.121-0.492,3.503-0.688c1.383-0.195,2.802-0.293,4.26-0.293c1.494,0,2.742,0.14,3.741,0.418
		c0.999,0.281,1.797,0.707,2.396,1.276c0.598,0.57,1.018,1.28,1.261,2.129c0.243,0.853,0.365,1.835,0.365,2.957v4.597h1.233v4.596
		h-7.679V309.262z M434.505,304.608c-1.158,0-1.99,0.081-2.494,0.238c-0.504,0.159-0.756,0.435-0.756,0.828
		c0,0.598,0.513,0.896,1.541,0.896c1.14,0,1.709-0.599,1.709-1.794V304.608z"/>
	<path fill="#FFFFFF" d="M451.039,306.571h1.233v4.596h-8.912v-4.596h1.234v-6.391h-1.234v-4.596h7.679V306.571z M445.266,289.365
		h5.156v4.679h-5.156V289.365z"/>
	<path fill="#FFFFFF" d="M462.809,295.585h7.678v4.596h-1.232v9.865c0,1.383-0.173,2.563-0.519,3.545
		c-0.346,0.98-0.865,1.778-1.556,2.396c-0.691,0.616-1.541,1.069-2.55,1.359c-1.009,0.289-2.167,0.434-3.475,0.434
		c-1.233,0-2.485-0.093-3.755-0.28c-1.271-0.188-2.251-0.402-2.943-0.645v-4.595c0.785,0.147,1.64,0.274,2.564,0.376
		c0.926,0.103,1.845,0.155,2.761,0.155c1.101,0,1.882-0.174,2.34-0.518c0.457-0.347,0.687-0.949,0.687-1.807v-1.206
		c-0.168,0.224-0.393,0.471-0.673,0.741c-0.28,0.271-0.603,0.519-0.967,0.743c-0.364,0.225-0.775,0.418-1.233,0.575
		c-0.458,0.158-0.948,0.236-1.471,0.236c-1.943,0-3.387-0.713-4.33-2.143c-0.943-1.428-1.415-3.442-1.415-6.038
		c0-2.598,0.471-4.61,1.415-6.04s2.387-2.143,4.33-2.143c0.523,0,1.013,0.079,1.471,0.237c0.458,0.159,0.869,0.35,1.233,0.575
		c0.364,0.224,0.687,0.473,0.967,0.742c0.28,0.271,0.504,0.519,0.673,0.742V295.585z M459.558,304.777
		c0,0.636,0.135,1.093,0.406,1.374c0.271,0.279,0.677,0.42,1.219,0.42c0.543,0,0.949-0.141,1.219-0.42
		c0.271-0.281,0.407-0.738,0.407-1.374v-2.803c0-0.634-0.136-1.092-0.407-1.373c-0.271-0.28-0.676-0.421-1.219-0.421
		c-0.542,0-0.948,0.141-1.219,0.421c-0.271,0.281-0.406,0.739-0.406,1.373V304.777z"/>
	<path fill="#FFFFFF" d="M488.029,303.377c0,1.382-0.196,2.582-0.589,3.601s-0.958,1.868-1.695,2.55
		c-0.738,0.682-1.63,1.191-2.676,1.527c-1.046,0.337-2.214,0.503-3.503,0.503c-1.289,0-2.456-0.166-3.502-0.503
		c-1.047-0.336-1.938-0.846-2.676-1.527c-0.739-0.682-1.304-1.531-1.696-2.55c-0.393-1.019-0.588-2.219-0.588-3.601
		c0-1.364,0.196-2.56,0.588-3.588c0.392-1.027,0.957-1.883,1.696-2.564c0.737-0.682,1.629-1.191,2.676-1.527
		c1.046-0.336,2.214-0.503,3.502-0.503c1.29,0,2.458,0.167,3.503,0.503s1.938,0.846,2.676,1.527
		c0.737,0.682,1.303,1.537,1.695,2.564C487.833,300.817,488.029,302.013,488.029,303.377z M479.565,306.571
		c0.542,0,0.948-0.141,1.22-0.42c0.271-0.281,0.406-0.738,0.406-1.374v-2.803c0-0.634-0.136-1.092-0.406-1.373
		c-0.271-0.28-0.678-0.421-1.22-0.421s-0.948,0.141-1.218,0.421c-0.271,0.281-0.406,0.739-0.406,1.373v2.803
		c0,0.636,0.135,1.093,0.406,1.374C478.618,306.431,479.023,306.571,479.565,306.571z"/>
	<path fill="#FFFFFF" d="M498.51,306.571h1.232v-4.597c0-0.634-0.136-1.092-0.406-1.373c-0.271-0.28-0.678-0.421-1.219-0.421
		c-0.542,0-0.949,0.141-1.219,0.421c-0.271,0.281-0.406,0.739-0.406,1.373v4.597h1.233v4.596h-8.912v-4.596h1.233v-6.391h-1.233
		v-4.596h7.679v1.906c0.224-0.224,0.477-0.472,0.757-0.742c0.281-0.27,0.611-0.519,0.995-0.742c0.383-0.226,0.817-0.416,1.303-0.575
		c0.485-0.158,1.046-0.237,1.681-0.237c1.533,0,2.742,0.546,3.63,1.64c0.887,1.091,1.331,2.805,1.331,5.141v4.597h1.233v4.596
		h-8.911V306.571z"/>
	<path fill="#FFCB01" d="M509.018,306.795c1.4,0.207,2.55,0.342,3.446,0.406c0.897,0.065,1.607,0.1,2.129,0.1
		c0.822,0,1.363-0.065,1.627-0.197c0.26-0.13,0.392-0.309,0.392-0.532c0-0.242-0.141-0.424-0.421-0.547
		c-0.28-0.121-0.859-0.248-1.737-0.379c-1.942-0.26-3.47-0.82-4.582-1.682c-1.112-0.857-1.667-2.072-1.667-3.643
		c0-0.728,0.13-1.405,0.392-2.031c0.261-0.625,0.682-1.166,1.261-1.625c0.579-0.458,1.321-0.817,2.228-1.08
		c0.906-0.262,1.994-0.391,3.265-0.391c1.382,0,2.629,0.079,3.74,0.238c1.111,0.16,2.032,0.362,2.761,0.607v3.806
		c-0.896-0.111-1.804-0.207-2.718-0.281c-0.917-0.074-1.785-0.111-2.607-0.111c-0.784,0-1.34,0.057-1.666,0.168
		c-0.328,0.112-0.492,0.279-0.492,0.502c0,0.112,0.029,0.21,0.085,0.295c0.056,0.084,0.163,0.159,0.321,0.224
		c0.16,0.064,0.379,0.121,0.66,0.167c0.279,0.047,0.634,0.089,1.064,0.127c2.166,0.204,3.764,0.735,4.792,1.593
		c1.026,0.857,1.541,2.078,1.541,3.664c0,1.657-0.569,2.967-1.709,3.928c-1.14,0.96-2.925,1.438-5.353,1.438
		c-1.42,0-2.715-0.082-3.881-0.251c-1.168-0.167-2.125-0.373-2.872-0.615V306.795z"/>
	<path fill="#FFCB01" d="M533.594,306.571h1.233v-4.597c0-0.634-0.136-1.092-0.407-1.373c-0.271-0.28-0.677-0.421-1.219-0.421
		c-0.541,0-0.948,0.141-1.219,0.421c-0.271,0.281-0.406,0.739-0.406,1.373v4.597h1.232v4.596h-8.911v-4.596h1.233v-12.61h-1.233
		v-4.596h7.679v8.126c0.225-0.224,0.477-0.472,0.757-0.742c0.28-0.27,0.612-0.519,0.995-0.742c0.383-0.226,0.816-0.416,1.303-0.575
		c0.485-0.158,1.047-0.237,1.682-0.237c1.531,0,2.741,0.546,3.629,1.64c0.887,1.091,1.331,2.805,1.331,5.141v4.597h1.232v4.596
		h-8.911V306.571z"/>
	<path fill="#FFCB01" d="M551.359,306.571h1.234v4.596h-8.912v-4.596h1.233v-6.391h-1.233v-4.596h7.678V306.571z M545.587,289.365
		h5.156v4.679h-5.156V289.365z"/>
	<path fill="#FFCB01" d="M553.77,295.585h7.678v1.85l0.281,0.084c0.131-0.26,0.299-0.532,0.504-0.813
		c0.206-0.278,0.457-0.531,0.757-0.755c0.298-0.226,0.64-0.408,1.023-0.547c0.383-0.141,0.816-0.21,1.303-0.21
		c0.393,0,0.774,0.027,1.149,0.082c0.373,0.058,0.746,0.16,1.121,0.309v4.849c-0.617-0.112-1.135-0.182-1.556-0.211
		c-0.421-0.027-0.771-0.042-1.051-0.042c-1.233,0-2.13,0.276-2.69,0.828c-0.561,0.551-0.842,1.499-0.842,2.843v2.72h2.552v4.596
		H553.77v-4.596h1.232v-6.391h-1.232V295.585z"/>
	<path fill="#FFCB01" d="M576.44,295.585h3.783v4.596h-3.783v4.597c0,0.636,0.136,1.093,0.406,1.374
		c0.271,0.279,0.677,0.42,1.219,0.42c0.747,0,1.522-0.085,2.326-0.253v4.4c-0.598,0.224-1.313,0.421-2.144,0.588
		c-0.832,0.169-1.724,0.251-2.676,0.251c-0.953,0-1.799-0.102-2.537-0.306c-0.737-0.206-1.359-0.557-1.863-1.053
		c-0.504-0.494-0.893-1.144-1.163-1.948c-0.271-0.802-0.405-1.802-0.405-2.997v-5.073h-1.234v-4.596c0.748,0,1.29-0.19,1.626-0.573
		c0.337-0.383,0.505-0.873,0.505-1.471v-1.263h5.94V295.585z"/>
	<path fill="#FFCB01" d="M582.156,306.795c1.402,0.207,2.551,0.342,3.447,0.406c0.896,0.065,1.607,0.1,2.129,0.1
		c0.822,0,1.365-0.065,1.627-0.197c0.262-0.13,0.392-0.309,0.392-0.532c0-0.242-0.141-0.424-0.421-0.547
		c-0.279-0.121-0.859-0.248-1.736-0.379c-1.943-0.26-3.471-0.82-4.582-1.682c-1.112-0.857-1.668-2.072-1.668-3.643
		c0-0.728,0.131-1.405,0.393-2.031c0.262-0.625,0.682-1.166,1.262-1.625c0.578-0.458,1.32-0.817,2.227-1.08
		c0.906-0.262,1.994-0.391,3.266-0.391c1.382,0,2.63,0.079,3.741,0.238c1.111,0.16,2.031,0.362,2.76,0.607v3.806
		c-0.896-0.111-1.804-0.207-2.718-0.281c-0.916-0.074-1.785-0.111-2.607-0.111c-0.784,0-1.34,0.057-1.666,0.168
		c-0.328,0.112-0.49,0.279-0.49,0.502c0,0.112,0.027,0.21,0.084,0.295c0.056,0.084,0.162,0.159,0.321,0.224s0.378,0.121,0.659,0.167
		c0.28,0.047,0.636,0.089,1.064,0.127c2.167,0.204,3.764,0.735,4.792,1.593c1.026,0.857,1.542,2.078,1.542,3.664
		c0,1.657-0.57,2.967-1.71,3.928c-1.14,0.96-2.925,1.438-5.353,1.438c-1.42,0-2.713-0.082-3.881-0.251
		c-1.168-0.167-2.125-0.373-2.873-0.615V306.795z"/>
	<path fill="#FFFFFF" d="M597.653,306.571h4.372v4.596h-4.372V306.571z"/>
	<path fill="#FFFFFF" d="M610.824,304.385c0,0.691,0.191,1.229,0.574,1.612c0.383,0.383,1.023,0.574,1.92,0.574
		c0.914,0,1.83-0.047,2.746-0.141c0.915-0.094,1.803-0.213,2.662-0.363v4.4c-0.355,0.13-0.738,0.26-1.149,0.391
		c-0.411,0.132-0.868,0.248-1.373,0.351s-1.06,0.186-1.667,0.253c-0.607,0.064-1.294,0.096-2.059,0.096
		c-1.31,0-2.486-0.166-3.531-0.503c-1.047-0.336-1.939-0.846-2.677-1.527c-0.739-0.682-1.304-1.531-1.696-2.55
		s-0.588-2.219-0.588-3.601c0-1.364,0.195-2.56,0.588-3.588c0.393-1.027,0.957-1.883,1.696-2.564
		c0.737-0.682,1.63-1.191,2.677-1.527c1.045-0.336,2.213-0.503,3.502-0.503c0.784,0,1.5,0.055,2.145,0.167s1.228,0.251,1.751,0.42
		c0.522,0.17,0.995,0.356,1.415,0.562c0.42,0.206,0.798,0.401,1.135,0.589v5.549h-4.819v-0.506c0-0.634-0.136-1.092-0.407-1.373
		c-0.271-0.28-0.678-0.421-1.219-0.421c-0.523,0-0.925,0.141-1.205,0.421c-0.28,0.281-0.42,0.739-0.42,1.373V304.385z"/>
	<path fill="#FFFFFF" d="M636.829,303.377c0,1.382-0.196,2.582-0.589,3.601s-0.957,1.868-1.695,2.55s-1.63,1.191-2.677,1.527
		c-1.046,0.337-2.214,0.503-3.503,0.503c-1.288,0-2.457-0.166-3.502-0.503c-1.047-0.336-1.938-0.846-2.677-1.527
		c-0.737-0.682-1.304-1.531-1.695-2.55s-0.588-2.219-0.588-3.601c0-1.364,0.196-2.56,0.588-3.588
		c0.392-1.027,0.958-1.883,1.695-2.564c0.738-0.682,1.63-1.191,2.677-1.527c1.045-0.336,2.214-0.503,3.502-0.503
		c1.289,0,2.457,0.167,3.503,0.503c1.047,0.336,1.938,0.846,2.677,1.527s1.303,1.537,1.695,2.564
		C636.633,300.817,636.829,302.013,636.829,303.377z M628.365,306.571c0.543,0,0.949-0.141,1.221-0.42
		c0.27-0.281,0.405-0.738,0.405-1.374v-2.803c0-0.634-0.136-1.092-0.405-1.373c-0.271-0.28-0.678-0.421-1.221-0.421
		c-0.542,0-0.947,0.141-1.219,0.421c-0.271,0.281-0.406,0.739-0.406,1.373v2.803c0,0.636,0.136,1.093,0.406,1.374
		C627.418,306.431,627.823,306.571,628.365,306.571z"/>
	<path fill="#FFFFFF" d="M647.646,306.571h1.233v-4.597c0-0.634-0.137-1.092-0.406-1.373c-0.271-0.28-0.678-0.421-1.219-0.421
		c-0.543,0-0.949,0.141-1.22,0.421c-0.271,0.281-0.405,0.739-0.405,1.373v4.597h1.231v4.596h-8.911v-4.596h1.233v-6.391h-1.233
		v-4.596h7.68v1.906c0.224-0.224,0.475-0.472,0.756-0.742c0.28-0.27,0.611-0.519,0.995-0.742c0.382-0.226,0.815-0.416,1.303-0.575
		c0.485-0.158,1.046-0.237,1.681-0.237c0.636,0,1.187,0.069,1.653,0.21c0.468,0.139,0.874,0.317,1.22,0.531
		c0.346,0.216,0.639,0.458,0.883,0.729c0.242,0.271,0.457,0.546,0.645,0.826c0.279-0.261,0.578-0.528,0.896-0.799
		c0.318-0.27,0.688-0.518,1.107-0.741c0.42-0.226,0.896-0.408,1.428-0.547c0.533-0.141,1.154-0.21,1.863-0.21
		c1.533,0,2.742,0.546,3.63,1.64c0.888,1.091,1.331,2.805,1.331,5.141v4.597h1.233v4.596h-8.912v-4.596h1.233v-4.597
		c0-0.634-0.135-1.092-0.406-1.373c-0.271-0.28-0.676-0.421-1.218-0.421c-0.544,0-0.95,0.141-1.22,0.421
		c-0.271,0.281-0.407,0.739-0.407,1.373v4.597h1.233v4.596h-8.911V306.571z"/>
</g>
<g>
	<polygon fill="#A51920" points="364.617,265.673 376.241,289.227 402.235,293.004 383.426,311.338 387.867,337.226 
		364.617,325.003 341.369,337.226 345.809,311.338 327,293.004 352.993,289.227 	"/>
	<path fill="#FFCB01" d="M395.802,295.146l-21.242-3.144c-0.93,3.017-4.982,5.286-9.842,5.286c-4.875,0-8.937-2.285-9.851-5.314
		l-21.436,3.172l15.592,15.476l-3.681,21.853l19.273-10.316l19.274,10.316l-3.681-21.853L395.802,295.146z"/>
</g>
</svg>
