<?xml version="1.0" encoding="utf-8"?>
<!-- Generator: Adobe Illustrator 16.0.0, SVG Export Plug-In . SVG Version: 6.00 Build 0)  -->
<!DOCTYPE svg PUBLIC "-//W3C//DTD SVG 1.1//EN" "http://www.w3.org/Graphics/SVG/1.1/DTD/svg11.dtd">
<svg version="1.1" id="Layer_1" xmlns="http://www.w3.org/2000/svg" xmlns:xlink="http://www.w3.org/1999/xlink" x="0px" y="0px"
	 width="400px" height="400px" viewBox="0 0 400 400" enable-background="new 0 0 400 400" xml:space="preserve">
<rect x="1.725" y="340.275" fill="#A9000E" width="17.809" height="57.892"/>
<rect x="380.467" y="224.04" fill="#A9000E" width="17.809" height="57.892"/>
<polygon fill="#E9761D" points="1.725,312.353 1.725,398.167 398.275,309.854 398.275,224.04 "/>
<g>
	<path fill="#FFFFFF" d="M116.945,340.566c-2.305,3.992-5.529,7.719-9.674,11.18c-2.19,3.379-6.004,5.674-11.439,6.885
		c-3.8,0.846-7,0.637-9.6-0.631c-2.599-1.266-4.212-2.869-4.838-4.81c-0.626-1.941-0.663-3.548-0.112-4.823
		c0.55-1.274,1.296-2.251,2.236-2.931c1.976-6.504,3.154-13.9,3.537-22.188l11.568-3.986c1.568,4.164,2.914,7.636,4.038,10.418
		l4.436,10.471c0.445,1.028,0.833,2.06,1.166,3.09c0.332,1.031,0.517,1.954,0.553,2.769c2.007-1.67,3.583-3.23,4.727-4.685
		L116.945,340.566z M90.829,354.034c5.171-1.152,7.085-3.812,5.742-7.979c-0.375-1.162-0.922-2.509-1.643-4.042l-1.715-3.743
		c-1.083-2.391-2.192-4.999-3.329-7.825c-0.185,3.989-1.006,8.722-2.467,14.193c1.396,0.207,2.248,0.786,2.555,1.74
		s0.25,1.849-0.174,2.684c-0.424,0.835-1.184,1.374-2.278,1.617c-1.096,0.244-1.91,0.108-2.443-0.407
		C86.088,353.408,88.004,354.662,90.829,354.034z"/>
	<path fill="#FFFFFF" d="M154.738,317.66c-2.353,3.579-6.541,6.51-12.564,8.791c1.347,6.281,0.806,11.667-1.622,16.155
		c-2.427,4.49-6.16,7.295-11.2,8.418c-6.228,1.387-10.853,0.373-13.877-3.045c-1.064-1.196-1.858-2.605-2.381-4.229
		s-0.89-3.311-1.101-5.062s-0.247-3.594-0.107-5.528c0.316-4.372,1.601-8.148,3.856-11.331c2.68-3.792,6.578-6.26,11.698-7.399
		c6.938-1.546,11.565,1.268,13.877,8.438l0.021,0.065c0.277-0.014,0.733-0.092,1.367-0.233c1.451-0.323,3.194-1.123,5.229-2.398
		s3.868-2.718,5.498-4.327L154.738,317.66z M135.508,328.147c-1.55,0.016-2.597-0.82-3.142-2.51
		c-0.544-1.688-0.075-3.038,1.408-4.051c-0.564-1.402-1.16-2.35-1.786-2.846s-1.573-0.602-2.839-0.32
		c-2.48,0.553-4.122,3.357-4.923,8.413c-0.803,5.057-0.635,9.35,0.504,12.88c0.7,2.171,1.381,3.495,2.043,3.97
		c0.663,0.476,1.282,0.731,1.86,0.768c0.577,0.036,1.314-0.046,2.212-0.246c1.846-0.411,3.245-2.169,4.196-5.271
		C135.992,335.83,136.148,332.235,135.508,328.147z"/>
	<path fill="#FFFFFF" d="M174.175,327.821c-0.803,9.087-5.281,14.538-13.435,16.354c-2.137,0.477-4.256,0.267-6.354-0.63
		c-2.073-0.901-3.565-2.768-4.477-5.596c-0.41-1.271-0.672-2.788-0.788-4.549l-2.213-35.681l11.557-4.02l2.428,38.453
		c0.05,0.858,0.203,1.683,0.458,2.473c0.488,1.512,1.827,2.025,4.017,1.538c1.583-0.353,2.87-1.25,3.861-2.694
		c0.992-1.441,1.505-3.072,1.542-4.891L174.175,327.821z"/>
	<path fill="#FFFFFF" d="M208.668,326.521c0.871-0.194,1.695-0.531,2.475-1.011c0.543,2.302,0.148,4.234-1.186,5.8
		c-1.332,1.567-3.133,2.602-5.402,3.107c-2.27,0.505-4.039,0.546-5.305,0.124c-2.296-0.806-3.965-2.078-5.007-3.821
		c-2.097,4.463-5.466,7.211-10.11,8.245c-4.645,1.035-8.43-0.18-11.355-3.641c-1.052-1.247-1.863-2.752-2.432-4.518
		c-0.569-1.766-0.954-3.573-1.153-5.42c-0.199-1.848-0.201-3.733-0.001-5.658c0.444-4.236,1.83-7.965,4.157-11.187
		c2.327-3.221,5.707-5.325,10.14-6.313c2.321-0.517,4.102-0.566,5.339-0.148c1.238,0.418,2.016,1.12,2.334,2.106l0.085,0.264
		l-1.037-16.374l11.557-4.021l2.43,38.452c-0.02,0.734,0.074,1.419,0.279,2.055C205.053,326.362,206.451,327.015,208.668,326.521z
		 M182.035,327.199c1.054,3.268,2.926,4.602,5.617,4.002c1.135-0.252,2.203-0.932,3.205-2.036c1.001-1.104,1.534-2.521,1.599-4.251
		l-1.049-17.465c-1.004-1.446-2.363-1.978-4.078-1.596c-1.716,0.383-3.069,1.4-4.063,3.056c-2.392,3.987-3.05,9.094-1.977,15.318
		C181.454,325.178,181.703,326.168,182.035,327.199z"/>
	<path fill="#FFFFFF" d="M268.131,292.407c-2.354,3.58-6.541,6.51-12.564,8.791c1.346,6.282,0.807,11.668-1.621,16.156
		c-2.428,4.489-6.16,7.295-11.199,8.417c-6.229,1.387-10.854,0.373-13.879-3.044c-1.064-1.196-1.857-2.605-2.381-4.229
		c-0.523-1.622-0.891-3.31-1.102-5.062c-0.211-1.75-0.246-3.593-0.107-5.528c0.316-4.371,1.602-8.147,3.857-11.33
		c2.68-3.792,6.578-6.26,11.697-7.4c6.939-1.545,11.564,1.268,13.877,8.439l0.021,0.065c0.277-0.014,0.732-0.093,1.367-0.233
		c1.449-0.323,3.193-1.123,5.229-2.398c2.035-1.276,3.867-2.719,5.498-4.328L268.131,292.407z M248.902,302.895
		c-1.551,0.017-2.598-0.82-3.143-2.509s-0.074-3.039,1.408-4.051c-0.564-1.402-1.16-2.351-1.787-2.846
		c-0.625-0.496-1.572-0.602-2.838-0.32c-2.48,0.553-4.121,3.356-4.924,8.412c-0.803,5.057-0.635,9.35,0.504,12.88
		c0.699,2.172,1.381,3.495,2.043,3.971c0.662,0.475,1.281,0.73,1.859,0.767c0.578,0.037,1.314-0.046,2.213-0.246
		c1.846-0.411,3.244-2.168,4.195-5.271C249.385,310.578,249.541,306.983,248.902,302.895z"/>
	<path fill="#FFFFFF" d="M306.844,298.276c-0.75,9.075-4.834,14.438-12.248,16.089c-4.828,1.076-8.193-0.454-10.092-4.592
		c-1.795,4.96-5.105,7.978-9.934,9.052c-2.428,0.541-4.691,0.363-6.791-0.533c-2.072-0.9-3.564-2.767-4.477-5.596
		c-0.41-1.271-0.672-2.787-0.787-4.549l-1.467-22.837l11.676-2.601l1.564,24.19c0.066,0.739,0.193,1.393,0.377,1.961
		c0.594,1.843,1.695,2.585,3.305,2.227c2.85-0.635,4.373-3.102,4.572-7.4l-1.467-22.837l11.676-2.601l1.563,24.19
		c0.01,0.821,0.146,1.638,0.408,2.448c0.494,1.536,1.85,2.057,4.066,1.563c3.033-0.676,4.584-3.148,4.65-7.417L306.844,298.276z"/>
	<path fill="#FFFFFF" d="M302.527,278.965l-2.691,0.6l-0.197-2.848l2.652-0.591l-0.547-9.855l11.557-4.021l0.666,11.275l4.867-1.084
		l0.236,2.839l-4.867,1.084l1.326,21.352c0.012,0.915,0.135,1.734,0.367,2.457c0.234,0.725,0.615,1.269,1.143,1.633
		c0.525,0.364,1.291,0.435,2.295,0.211c1.002-0.223,1.746-0.46,2.232-0.708c-0.355,4.074-1.807,6.678-4.355,7.809
		c-0.695,0.297-1.4,0.524-2.113,0.683c-2.875,0.641-5.182,0.374-6.918-0.803c-1.738-1.177-2.873-2.593-3.406-4.249
		c-0.533-1.655-0.84-3.133-0.92-4.432L302.527,278.965z"/>
</g>
</svg>
