<?xml version="1.0" encoding="utf-8"?>
<!-- Generator: Adobe Illustrator 16.0.0, SVG Export Plug-In . SVG Version: 6.00 Build 0)  -->
<!DOCTYPE svg PUBLIC "-//W3C//DTD SVG 1.1//EN" "http://www.w3.org/Graphics/SVG/1.1/DTD/svg11.dtd">
<svg version="1.1" id="Layer_1" xmlns="http://www.w3.org/2000/svg" xmlns:xlink="http://www.w3.org/1999/xlink" x="0px" y="0px"
	 width="960px" height="300px" viewBox="0 0 960 300" enable-background="new 0 0 960 300" xml:space="preserve">
<g>
	<path fill="#FFFFFF" d="M40.407,80.252c2.521,0,4.351-0.399,5.491-1.2c1.139-0.799,1.779-1.999,1.919-3.6
		c0.098-1.119-0.257-2.1-1.061-2.94c-0.806-0.84-2.497-1.819-5.072-2.94c-5.459-2.239-10.217-4.38-14.279-6.42
		s-7.378-4.299-9.95-6.78c-2.573-2.479-4.4-5.379-5.485-8.7c-1.084-3.319-1.42-7.339-1.007-12.06c0.392-4.479,1.412-8.5,3.06-12.06
		c1.647-3.559,4.091-6.6,7.33-9.12c3.238-2.521,7.417-4.44,12.537-5.76c5.119-1.32,11.347-1.98,18.681-1.98
		c6.647,0,12.849,0.701,18.611,2.1c5.76,1.4,10.487,3.26,14.181,5.58l-1.879,21.48H59.418c0.203-2.319-0.271-3.899-1.419-4.74
		c-1.149-0.84-2.603-1.26-4.358-1.26c-2.521,0-4.367,0.341-5.533,1.02c-1.168,0.681-1.825,1.86-1.972,3.54
		c-0.119,1.361,0.384,2.361,1.514,3c1.128,0.642,2.841,1.361,5.141,2.16c4.296,1.521,8.339,3.12,12.128,4.8
		c3.787,1.68,7.063,3.761,9.825,6.24c2.763,2.48,4.85,5.481,6.261,9c1.411,3.521,1.892,7.841,1.444,12.96
		c-0.91,10.4-4.796,18.141-11.658,23.22c-6.862,5.082-16.482,7.621-28.858,7.621c-7.03,0-13.736-0.642-20.116-1.92
		c-6.383-1.279-11.445-2.8-15.187-4.561l2.079-23.76h25.212c-0.21,2.4,0.092,4.181,0.908,5.34
		C35.644,79.673,37.502,80.252,40.407,80.252z"/>
	<path fill="#FFFFFF" d="M173.932,68.252c-0.567,6.48-1.904,11.94-4.011,16.379c-2.107,4.44-4.889,8.061-8.342,10.86
		c-3.454,2.802-7.51,4.821-12.162,6.06c-4.655,1.239-9.772,1.86-15.347,1.86c-5.73,0-10.853-0.621-15.366-1.86
		c-4.516-1.239-8.272-3.258-11.273-6.06c-3.004-2.799-5.208-6.42-6.614-10.86c-1.408-4.439-1.826-9.899-1.259-16.379l3.517-40.2
		h-6.876l1.722-19.68h43.548l-1.722,19.68h-4.584l-4.053,46.32c-0.238,2.72,0.144,4.68,1.146,5.88c1.003,1.2,2.611,1.8,4.828,1.8
		c2.215,0,3.93-0.6,5.143-1.8c1.212-1.2,1.938-3.16,2.176-5.88l4.053-46.32h-4.584l1.722-19.68h40.454l-1.722,19.68h-6.876
		L173.932,68.252z"/>
	<path fill="#FFFFFF" d="M260.767,8.372h40.109l-1.722,19.68h-6.876l-6.446,73.68H253.63l-28.843-54.12l-3.013,34.44h6.876
		l-1.722,19.68h-40.109l1.722-19.68h6.876l4.725-54h-6.876l1.722-19.68h42.517l25.919,48.24l2.499-28.56h-6.876L260.767,8.372z"/>
	<path fill="#FFFFFF" d="M337.104,80.252c2.521,0,4.352-0.399,5.491-1.2c1.139-0.799,1.779-1.999,1.919-3.6
		c0.098-1.119-0.257-2.1-1.061-2.94c-0.807-0.84-2.497-1.819-5.072-2.94c-5.459-2.239-10.217-4.38-14.279-6.42
		c-4.062-2.04-7.378-4.299-9.95-6.78c-2.572-2.479-4.399-5.379-5.484-8.7c-1.084-3.319-1.42-7.339-1.007-12.06
		c0.392-4.479,1.411-8.5,3.06-12.06c1.647-3.559,4.091-6.6,7.33-9.12c3.238-2.521,7.417-4.44,12.537-5.76
		c5.119-1.32,11.347-1.98,18.681-1.98c6.647,0,12.85,0.701,18.611,2.1c5.76,1.4,10.488,3.26,14.181,5.58l-1.879,21.48h-24.067
		c0.203-2.319-0.271-3.899-1.419-4.74c-1.148-0.84-2.603-1.26-4.357-1.26c-2.521,0-4.367,0.341-5.533,1.02
		c-1.168,0.681-1.825,1.86-1.972,3.54c-0.119,1.361,0.384,2.361,1.514,3c1.128,0.642,2.841,1.361,5.141,2.16
		c4.297,1.521,8.34,3.12,12.129,4.8c3.786,1.68,7.063,3.761,9.825,6.24c2.764,2.48,4.851,5.481,6.262,9
		c1.41,3.521,1.892,7.841,1.443,12.96c-0.91,10.4-4.796,18.141-11.659,23.22c-6.861,5.082-16.481,7.621-28.857,7.621
		c-7.03,0-13.736-0.642-20.116-1.92c-6.383-1.279-11.445-2.8-15.187-4.561l2.078-23.76h25.213c-0.21,2.4,0.092,4.181,0.907,5.34
		C332.341,79.673,334.199,80.252,337.104,80.252z"/>
	<path fill="#FFFFFF" d="M518.197,55.052c-0.771,8.801-2.453,16.26-5.053,22.38c-2.598,6.12-5.955,11.1-10.074,14.939
		c-4.117,3.84-8.967,6.642-14.544,8.4c-5.58,1.759-11.69,2.641-18.337,2.641c-6.646,0-12.605-0.882-17.876-2.641
		c-5.271-1.758-9.628-4.56-13.074-8.4c-3.445-3.84-5.933-8.82-7.46-14.939c-1.526-6.12-1.905-13.579-1.136-22.38
		c0.763-8.719,2.445-16.159,5.046-22.32c2.604-6.159,5.962-11.16,10.08-15c4.117-3.84,8.964-6.64,14.543-8.4
		c5.578-1.759,11.692-2.64,18.338-2.64c6.646,0,12.604,0.881,17.876,2.64c5.271,1.761,9.628,4.56,13.074,8.4
		c3.446,3.84,5.931,8.841,7.455,15C518.58,38.894,518.96,46.333,518.197,55.052z M472.058,82.052c2.597,0,4.606-0.699,6.028-2.1
		c1.42-1.398,2.269-3.66,2.542-6.78l3.17-36.24c0.272-3.121-0.18-5.379-1.354-6.78c-1.178-1.398-3.063-2.1-5.661-2.1
		c-2.599,0-4.607,0.702-6.028,2.1c-1.422,1.401-2.269,3.66-2.542,6.78l-3.17,36.24c-0.273,3.12,0.178,5.381,1.354,6.78
		C467.571,81.353,469.459,82.052,472.058,82.052z"/>
	<path fill="#FFFFFF" d="M606.086,68.252c-0.566,6.48-1.903,11.94-4.012,16.379c-2.106,4.44-4.889,8.061-8.342,10.86
		c-3.454,2.802-7.51,4.821-12.162,6.06c-4.654,1.239-9.771,1.86-15.348,1.86c-5.729,0-10.853-0.621-15.365-1.86
		c-4.516-1.239-8.271-3.258-11.272-6.06c-3.004-2.799-5.208-6.42-6.614-10.86c-1.407-4.439-1.826-9.899-1.26-16.379l3.518-40.2
		h-6.876l1.722-19.68h43.549l-1.723,19.68h-4.584l-4.053,46.32c-0.238,2.72,0.145,4.68,1.146,5.88c1.003,1.2,2.61,1.8,4.827,1.8
		c2.216,0,3.931-0.6,5.144-1.8c1.212-1.2,1.938-3.16,2.176-5.88l4.053-46.32h-4.584l1.723-19.68h40.454l-1.723,19.68h-6.876
		L606.086,68.252z"/>
	<path fill="#FFFFFF" d="M626.453,8.372h86.179l-2.552,29.16h-19.711l0.83-9.48h-7.336l-4.725,54h8.022l-1.723,19.68h-48.132
		l1.722-19.68h8.021l4.725-54h-7.334l-0.829,9.48H623.9L626.453,8.372z"/>
	<path fill="#FFFFFF" d="M716.957,82.052h17.878l-1.723,19.68h-17.878L716.957,82.052z"/>
	<path fill="#FFFFFF" d="M47.019,170.854h40.568l-1.564,17.881h-5.729l-2.1,24c-1.836,0.88-3.958,1.779-6.367,2.699
		c-2.413,0.92-5.157,1.738-8.238,2.459c-3.081,0.722-6.515,1.319-10.299,1.801c-3.787,0.479-7.971,0.721-12.555,0.721
		c-6.876,0-12.987-0.882-18.333-2.641c-5.347-1.76-9.783-4.561-13.304-8.399c-3.522-3.84-6.046-8.819-7.575-14.94
		c-1.527-6.119-1.906-13.578-1.136-22.379c0.763-8.72,2.445-16.16,5.046-22.321c2.603-6.159,5.98-11.16,10.137-15
		c4.156-3.839,9.061-6.639,14.716-8.399c5.655-1.759,11.881-2.64,18.682-2.64c4.659,0,8.86,0.24,12.6,0.72
		c3.739,0.48,7.084,1.102,10.037,1.86c2.951,0.762,5.55,1.601,7.802,2.521c2.249,0.92,4.213,1.82,5.895,2.7l-2.509,28.68h-28.65
		l0.493-5.641c0.301-3.438-0.155-5.879-1.364-7.319c-1.212-1.44-3.269-2.161-6.171-2.161c-2.904,0-5.087,0.721-6.549,2.161
		c-1.464,1.44-2.345,3.882-2.646,7.319l-3.065,35.04c-0.301,3.44,0.153,5.88,1.365,7.319c1.21,1.44,3.267,2.16,6.171,2.16
		c2.902,0,5.085-0.72,6.549-2.16c1.461-1.439,2.344-3.879,2.646-7.319l0.073-0.839h-6.188L47.019,170.854z"/>
	<path fill="#FFFFFF" d="M177.434,185.253c-0.567,6.479-1.904,11.938-4.011,16.38s-4.889,8.061-8.342,10.86
		c-3.454,2.801-7.51,4.819-12.162,6.06c-4.655,1.239-9.772,1.86-15.347,1.86c-5.73,0-10.853-0.621-15.366-1.86
		c-4.516-1.238-8.272-3.259-11.273-6.06c-3.004-2.8-5.208-6.42-6.614-10.86c-1.407-4.439-1.826-9.9-1.259-16.38l3.517-40.201h-6.876
		l1.722-19.68h43.548l-1.722,19.68h-4.584l-4.053,46.32c-0.238,2.722,0.144,4.681,1.147,5.88c1.002,1.201,2.611,1.801,4.828,1.801
		c2.215,0,3.93-0.6,5.143-1.801c1.211-1.199,1.938-3.158,2.175-5.88l4.053-46.32h-4.584l1.722-19.68h40.454l-1.722,19.68h-6.876
		L177.434,185.253z"/>
	<path fill="#FFFFFF" d="M264.268,125.373h40.109l-1.723,19.68h-6.875l-6.446,73.679h-32.202l-28.843-54.119l-3.013,34.439h6.876
		l-1.722,19.68H190.32l1.722-19.68h6.876l4.725-54h-6.876l1.722-19.68h42.517l25.919,48.241l2.499-28.561h-6.876L264.268,125.373z"
		/>
	<path fill="#FFFFFF" d="M340.606,197.252c2.521,0,4.351-0.398,5.491-1.199c1.139-0.799,1.779-1.998,1.919-3.601
		c0.098-1.119-0.257-2.101-1.06-2.94c-0.808-0.839-2.497-1.816-5.072-2.938c-5.459-2.238-10.217-4.38-14.279-6.421
		c-4.062-2.039-7.379-4.299-9.95-6.778c-2.572-2.479-4.399-5.38-5.484-8.7c-1.084-3.318-1.42-7.339-1.007-12.061
		c0.392-4.479,1.412-8.499,3.06-12.061c1.647-3.559,4.091-6.6,7.33-9.121c3.238-2.52,7.417-4.44,12.537-5.759
		c5.119-1.32,11.347-1.98,18.681-1.98c6.647,0,12.85,0.701,18.612,2.1c5.759,1.401,10.487,3.261,14.181,5.581l-1.879,21.479h-24.066
		c0.202-2.319-0.271-3.9-1.42-4.741c-1.148-0.841-2.603-1.26-4.358-1.26c-2.521,0-4.367,0.34-5.532,1.02
		c-1.168,0.681-1.825,1.86-1.972,3.54c-0.119,1.36,0.384,2.36,1.514,3.001c1.127,0.641,2.841,1.359,5.14,2.159
		c4.297,1.521,8.34,3.12,12.13,4.801c3.786,1.68,7.063,3.761,9.825,6.239c2.763,2.479,4.851,5.48,6.261,9
		c1.411,3.521,1.892,7.841,1.443,12.96c-0.91,10.401-4.796,18.141-11.657,23.22c-6.863,5.082-16.483,7.621-28.859,7.621
		c-7.03,0-13.736-0.643-20.116-1.921c-6.383-1.278-11.444-2.8-15.187-4.56l2.079-23.761h25.212c-0.21,2.4,0.092,4.183,0.907,5.341
		C335.844,196.673,337.703,197.252,340.606,197.252z"/>
	<path fill="#FFFFFF" d="M521.699,172.053c-0.77,8.801-2.453,16.26-5.053,22.381c-2.598,6.119-5.955,11.101-10.072,14.939
		c-4.118,3.839-8.968,6.641-14.546,8.398c-5.579,1.76-11.689,2.642-18.337,2.642c-6.646,0-12.605-0.882-17.876-2.642
		c-5.271-1.758-9.628-4.56-13.073-8.398c-3.446-3.84-5.933-8.82-7.461-14.939c-1.526-6.121-1.905-13.58-1.136-22.381
		c0.764-8.719,2.445-16.158,5.046-22.32c2.604-6.159,5.962-11.16,10.08-15c4.117-3.839,8.964-6.639,14.543-8.399
		c5.578-1.759,11.692-2.64,18.339-2.64c6.647,0,12.604,0.881,17.875,2.64c5.271,1.761,9.628,4.56,13.075,8.399
		c3.445,3.841,5.93,8.841,7.454,15C522.082,155.895,522.462,163.334,521.699,172.053z M475.56,199.053
		c2.597,0,4.606-0.699,6.028-2.101c1.421-1.397,2.269-3.659,2.542-6.779l3.17-36.239c0.272-3.121-0.18-5.379-1.354-6.781
		c-1.178-1.399-3.063-2.1-5.66-2.1c-2.6,0-4.608,0.701-6.028,2.1c-1.422,1.401-2.27,3.66-2.542,6.781l-3.171,36.239
		c-0.273,3.12,0.178,5.382,1.354,6.779C471.074,198.354,472.961,199.053,475.56,199.053z"/>
	<path fill="#FFFFFF" d="M609.588,185.253c-0.566,6.479-1.903,11.938-4.011,16.38c-2.108,4.441-4.89,8.061-8.343,10.86
		c-3.453,2.801-7.51,4.819-12.162,6.06c-4.654,1.239-9.771,1.86-15.347,1.86c-5.729,0-10.854-0.621-15.366-1.86
		c-4.516-1.238-8.271-3.259-11.272-6.06c-3.004-2.8-5.208-6.42-6.614-10.86c-1.407-4.439-1.826-9.9-1.26-16.38l3.518-40.201h-6.876
		l1.723-19.68h43.548l-1.723,19.68h-4.584l-4.053,46.32c-0.238,2.722,0.145,4.681,1.146,5.88c1.003,1.201,2.61,1.801,4.828,1.801
		c2.215,0,3.93-0.6,5.143-1.801c1.212-1.199,1.938-3.158,2.176-5.88l4.053-46.32h-4.584l1.723-19.68h40.454l-1.723,19.68h-6.876
		L609.588,185.253z"/>
	<path fill="#FFFFFF" d="M629.954,125.373h86.179l-2.551,29.16h-19.711l0.828-9.48h-7.335l-4.725,54h8.022l-1.723,19.68h-48.132
		l1.722-19.68h8.021l4.725-54h-7.334l-0.829,9.48h-19.711L629.954,125.373z"/>
	<path fill="#FFFFFF" d="M720.458,199.053h17.878l-1.723,19.68h-17.878L720.458,199.053z"/>
</g>
<g>
	<g>
		<path fill="#FFCB01" d="M166.461,242.214c0,3.015-1.148,4.522-3.445,4.522c-1.148,0-2.074-0.423-2.775-1.269
			c0.59-0.319,1.112-0.917,1.567-1.794c0.454-0.878,0.682-1.751,0.682-2.62s-0.228-1.604-0.682-2.201
			c-0.455-0.599-1.181-0.897-2.178-0.897c-0.997,0-1.922,0.335-2.775,1.005c-0.853,0.67-1.655,1.579-2.404,2.728
			c-1.516,2.297-2.751,5.231-3.708,8.805s-1.436,6.815-1.436,9.726c0,2.911,0.427,5.017,1.28,6.316
			c0.854,1.301,2.317,1.95,4.391,1.95c4.083,0,7.337-1.635,9.762-4.904l1.125,0.502c-1.563,3.956-4.538,6.699-8.924,8.23
			c-1.723,0.606-3.414,0.909-5.072,0.909c-0.048,0-0.096,0-0.144,0c-3.621-0.032-6.285-0.973-7.991-2.823
			c-1.707-1.851-2.56-4.825-2.56-8.924c0-4.1,0.678-8.191,2.034-12.274c1.579-4.817,3.908-8.422,6.986-10.814
			c2.36-1.818,5.056-2.728,8.087-2.728c3.796,0,6.308,1.188,7.537,3.564C166.246,240.053,166.461,241.05,166.461,242.214z"/>
		<path fill="#FFCB01" d="M182.62,265.853c0,1.403,0.598,2.105,1.794,2.105c1.101,0,1.946-0.351,2.536-1.053
			c0.59-0.702,1.172-1.794,1.747-3.278h2.058c-1.898,5.504-4.466,8.494-7.704,8.973c-0.511,0.063-1.141,0.096-1.89,0.096
			c-0.75,0-1.492-0.159-2.225-0.479c-2.042-0.861-3.063-2.544-3.063-5.049c0-1.34,0.367-3.477,1.101-6.412
			c0.733-2.935,1.101-4.96,1.101-6.076c0-1.676-0.59-2.513-1.771-2.513c-1.181,0-2.233,0.933-3.158,2.8
			c-0.271,0.525-0.495,1.1-0.67,1.723l-3.326,15.719h-7.058l7.106-33.328l7.25-0.981l-2.632,12.346
			c1.595-1.818,3.501-2.728,5.718-2.728c1.563,0,2.863,0.431,3.9,1.292c1.037,0.861,1.555,2.138,1.555,3.828
			s-0.271,3.604-0.813,5.742l-1.172,4.737C182.748,264.354,182.62,265.198,182.62,265.853z"/>
		<path fill="#FFCB01" d="M208.541,263.627c-3.669,6.046-8.159,9.068-13.47,9.068c-2.329,0-4.187-0.602-5.575-1.807
			c-1.388-1.204-2.082-3.193-2.082-5.969c0-3.732,0.949-7.346,2.847-10.839c1.451-2.664,3.429-4.562,5.934-5.694
			c1.292-0.606,2.632-0.909,4.02-0.909c2.265,0,3.804,0.427,4.618,1.28s1.22,1.989,1.22,3.409c0,2.791-1.125,5.164-3.374,7.118
			s-4.881,3.026-7.896,3.218c-0.08,0.925-0.12,1.579-0.12,1.962c0,1.675,0.295,2.779,0.885,3.313
			c0.59,0.535,1.419,0.802,2.488,0.802c1.882,0,3.465-0.419,4.75-1.256c1.284-0.838,2.644-2.07,4.079-3.697H208.541z
			 M202.272,251.832c0-1.181-0.407-1.771-1.22-1.771c-1.196,0.032-2.353,1.089-3.469,3.17c-1.117,2.082-1.922,4.391-2.417,6.927
			c1.882-0.128,3.537-1.005,4.964-2.632C201.559,255.899,202.272,254.001,202.272,251.832z"/>
		<path fill="#FFCB01" d="M218.335,247.478c3.924,0,5.886,1.483,5.886,4.45c0,1.244-0.255,2.157-0.766,2.739
			c-0.511,0.583-1.085,0.874-1.723,0.874c-0.638,0-1.252-0.191-1.842-0.574c0.398-1.053,0.598-2.019,0.598-2.896
			c0-1.34-0.467-2.01-1.399-2.01c-0.934,0-1.918,0.846-2.955,2.536c-1.483,2.393-2.504,5.367-3.063,8.924
			c-0.16,1.069-0.239,2.241-0.239,3.518c0,2.36,1.125,3.541,3.374,3.541c1.882,0,3.465-0.419,4.75-1.256
			c1.284-0.838,2.644-2.07,4.079-3.697h1.675c-3.669,6.046-8.159,9.068-13.47,9.068c-2.329,0-4.187-0.602-5.575-1.807
			c-1.388-1.204-2.082-3.193-2.082-5.969c0-3.749,0.949-7.369,2.847-10.863c1.436-2.631,3.405-4.521,5.91-5.67
			C215.632,247.78,216.963,247.478,218.335,247.478z"/>
		<path fill="#FFCB01" d="M237.725,254.727c0.574-0.143,1.116-0.215,1.627-0.215c1.802,0,3.15,0.566,4.043,1.699
			c0.893,1.132,1.34,2.479,1.34,4.043c0,0.574-0.064,1.196-0.191,1.866l-0.55,2.44c-0.16,0.67-0.239,1.196-0.239,1.579
			c0,1.212,0.638,1.818,1.914,1.818c0.606,0,0.997-0.032,1.172-0.096l0.55-0.216c-0.144,1.563-0.726,2.8-1.747,3.709
			c-1.021,0.894-1.962,1.34-2.823,1.34c-2.042,0-3.581-0.482-4.618-1.447c-1.037-0.965-1.555-2.341-1.555-4.127
			c0-0.75,0.096-1.604,0.287-2.561l0.407-1.914c0.127-0.686,0.191-1.284,0.191-1.795c0-1.578-0.59-2.368-1.771-2.368
			c-0.925,0-2.129,0.606-3.613,1.818l-2.56,12.106h-7.058l7.106-33.328l7.25-0.981l-3.661,17.251l9.451-7.441h4.857L237.725,254.727
			z"/>
		<path fill="#FFCB01" d="M284.422,253.794c-1.978,2.073-4.873,3.43-8.685,4.067c-0.383,4.466-1.667,8.039-3.852,10.719
			c-2.186,2.68-4.801,4.02-7.848,4.02c-3.765,0-6.189-1.388-7.273-4.163c-0.383-0.973-0.574-2.05-0.574-3.229
			c0-1.181,0.1-2.381,0.299-3.602c0.199-1.22,0.514-2.477,0.945-3.768c0.973-2.92,2.384-5.288,4.235-7.106
			c2.201-2.169,4.849-3.254,7.943-3.254c4.195,0,6.292,2.608,6.292,7.823v0.049c0.159,0.031,0.431,0.047,0.813,0.047
			c0.877,0,2.006-0.278,3.385-0.837c1.38-0.559,2.676-1.26,3.888-2.105L284.422,253.794z M271.669,258.005
			c-0.877-0.224-1.316-0.949-1.316-2.177c0-1.229,0.51-2.074,1.531-2.537c-0.064-1.036-0.227-1.77-0.491-2.201
			c-0.263-0.43-0.777-0.646-1.543-0.646c-1.5,0-2.935,1.655-4.307,4.965c-1.372,3.31-2.058,6.248-2.058,8.816
			c0,1.579,0.144,2.58,0.431,3.003s0.59,0.689,0.909,0.801c0.319,0.112,0.75,0.168,1.292,0.168c1.116,0,2.225-0.98,3.326-2.943
			C270.545,263.293,271.287,260.876,271.669,258.005z"/>
		<path fill="#FFCB01" d="M304.552,263.627c-2.074,6.046-5.352,9.068-9.833,9.068c-2.919,0-4.538-1.547-4.857-4.642
			c-1.914,3.095-4.331,4.642-7.25,4.642c-1.468,0-2.712-0.463-3.732-1.388c-1.005-0.925-1.507-2.417-1.507-4.474
			c0-0.926,0.128-1.994,0.383-3.207l3.326-15.719h7.058l-3.517,16.652c-0.096,0.511-0.144,0.973-0.144,1.388
			c0,1.34,0.486,2.01,1.459,2.01c1.723,0,3.03-1.443,3.924-4.331l3.326-15.719h7.058l-3.517,16.652
			c-0.144,0.559-0.215,1.133-0.215,1.723c0,1.116,0.67,1.675,2.01,1.675c1.834,0,3.158-1.443,3.972-4.331H304.552z"/>
		<path fill="#FFCB01" d="M304.992,249.87h-1.627l0.407-1.962h1.603l1.483-6.771l7.25-0.98l-1.675,7.752h2.943l-0.383,1.962h-2.943
			l-3.134,14.69c-0.16,0.622-0.239,1.196-0.239,1.723s0.116,0.953,0.347,1.28c0.231,0.327,0.649,0.49,1.256,0.49
			c0.606,0,1.068-0.048,1.388-0.144c-0.941,2.712-2.233,4.259-3.876,4.642c-0.447,0.096-0.885,0.144-1.316,0.144
			c-1.739,0-2.991-0.53-3.756-1.591s-1.148-2.193-1.148-3.397s0.096-2.253,0.287-3.146L304.992,249.87z"/>
		<path fill="#FFCB01" d="M352.263,253.794c-1.978,2.073-4.873,3.43-8.685,4.067c-0.383,4.466-1.667,8.039-3.852,10.719
			c-2.186,2.68-4.801,4.02-7.848,4.02c-3.765,0-6.189-1.388-7.273-4.163c-0.383-0.973-0.574-2.05-0.574-3.229
			c0-1.181,0.1-2.381,0.299-3.602c0.199-1.22,0.514-2.477,0.945-3.768c0.973-2.92,2.384-5.288,4.235-7.106
			c2.201-2.169,4.849-3.254,7.943-3.254c4.195,0,6.292,2.608,6.292,7.823v0.049c0.159,0.031,0.431,0.047,0.813,0.047
			c0.877,0,2.006-0.278,3.385-0.837c1.38-0.559,2.676-1.26,3.888-2.105L352.263,253.794z M339.511,258.005
			c-0.877-0.224-1.316-0.949-1.316-2.177c0-1.229,0.51-2.074,1.531-2.537c-0.064-1.036-0.227-1.77-0.491-2.201
			c-0.263-0.43-0.777-0.646-1.543-0.646c-1.5,0-2.935,1.655-4.307,4.965c-1.372,3.31-2.058,6.248-2.058,8.816
			c0,1.579,0.144,2.58,0.431,3.003s0.59,0.689,0.909,0.801c0.319,0.112,0.75,0.168,1.292,0.168c1.116,0,2.225-0.98,3.326-2.943
			C338.386,263.293,339.128,260.876,339.511,258.005z"/>
		<path fill="#FFCB01" d="M372.395,263.627c-2.074,6.046-5.352,9.068-9.834,9.068c-2.919,0-4.538-1.547-4.857-4.642
			c-1.914,3.095-4.331,4.642-7.25,4.642c-1.468,0-2.712-0.463-3.732-1.388c-1.005-0.925-1.507-2.417-1.507-4.474
			c0-0.926,0.128-1.994,0.383-3.207l3.326-15.719h7.058l-3.517,16.652c-0.096,0.511-0.144,0.973-0.144,1.388
			c0,1.34,0.486,2.01,1.459,2.01c1.723,0,3.03-1.443,3.924-4.331l3.326-15.719h7.058l-3.517,16.652
			c-0.144,0.559-0.215,1.133-0.215,1.723c0,1.116,0.67,1.675,2.01,1.675c1.834,0,3.158-1.443,3.971-4.331H372.395z"/>
		<path fill="#FFCB01" d="M367.833,272.408l5.192-24.5h7.058l-0.622,3.039c0.813-0.719,1.711-1.404,2.691-2.059
			c0.981-0.653,2.042-0.98,3.183-0.98c1.14,0,1.997,0.375,2.571,1.125c0.574,0.749,0.861,1.467,0.861,2.152
			c0,1.181-0.314,2.138-0.944,2.871c-0.63,0.734-1.392,1.102-2.285,1.102s-1.483-0.204-1.771-0.61
			c-0.287-0.407-0.463-0.821-0.526-1.244s-0.147-0.758-0.251-1.005s-0.323-0.371-0.658-0.371c-0.67,0-1.26,0.155-1.771,0.467
			c-0.511,0.311-1.093,0.777-1.747,1.399l-3.924,18.614H367.833z"/>
		<path fill="#FFCB01" d="M416.133,265.853c0,1.403,0.599,2.105,1.795,2.105c1.101,0,1.945-0.351,2.536-1.053
			c0.59-0.702,1.173-1.794,1.747-3.278h2.057c-1.898,5.504-4.466,8.494-7.703,8.973c-0.512,0.063-1.141,0.096-1.891,0.096
			s-1.492-0.159-2.225-0.479c-2.043-0.861-3.063-2.544-3.063-5.049c0-1.34,0.366-3.477,1.1-6.412
			c0.734-2.935,1.102-4.96,1.102-6.076c0-1.676-0.591-2.513-1.771-2.513c-1.18,0-2.232,0.933-3.158,2.8
			c-0.271,0.525-0.494,1.1-0.67,1.723l-3.325,15.719h-7.058l5.191-24.5h7.059l-0.527,2.536c1.596-1.818,3.502-2.728,5.719-2.728
			c1.563,0,2.863,0.431,3.9,1.292c1.036,0.861,1.555,2.138,1.555,3.828s-0.271,3.604-0.813,5.742l-1.173,4.737
			C416.261,264.354,416.133,265.198,416.133,265.853z"/>
		<path fill="#FFCB01" d="M442.053,263.627c-3.668,6.046-8.158,9.068-13.469,9.068c-2.33,0-4.188-0.602-5.575-1.807
			c-1.388-1.204-2.081-3.193-2.081-5.969c0-3.732,0.948-7.346,2.847-10.839c1.451-2.664,3.429-4.562,5.934-5.694
			c1.292-0.606,2.632-0.909,4.019-0.909c2.266,0,3.805,0.427,4.617,1.28c0.814,0.854,1.221,1.989,1.221,3.409
			c0,2.791-1.125,5.164-3.373,7.118c-2.25,1.954-4.881,3.026-7.895,3.218c-0.08,0.925-0.12,1.579-0.12,1.962
			c0,1.675,0.295,2.779,0.886,3.313c0.59,0.535,1.419,0.802,2.488,0.802c1.881,0,3.465-0.419,4.748-1.256
			c1.283-0.838,2.645-2.07,4.08-3.697H442.053z M435.785,251.832c0-1.181-0.408-1.771-1.221-1.771
			c-1.195,0.032-2.353,1.089-3.469,3.17c-1.117,2.082-1.922,4.391-2.416,6.927c1.881-0.128,3.537-1.005,4.963-2.632
			C435.07,255.899,435.785,254.001,435.785,251.832z"/>
		<path fill="#FFCB01" d="M446.465,265.805c0,1.436,0.486,2.153,1.459,2.153c1.723,0,3.031-1.443,3.924-4.331l3.326-15.719h7.059
			l-3.518,16.652c-0.176,0.781-0.264,1.372-0.264,1.771c0,1.085,0.559,1.627,1.676,1.627c1.516,0,2.959-1.021,4.33-3.063
			c1.85-2.728,3.135-6.141,3.852-10.24c0.191-1.148,0.287-2.169,0.287-3.063c-0.08,0.176-0.311,0.295-0.693,0.358l-0.502,0.096
			c-0.145,0.017-0.264,0.024-0.359,0.024c-0.574,0-1.014-0.275-1.316-0.825c-0.303-0.551-0.453-1.156-0.453-1.818
			s0.242-1.244,0.729-1.747c0.486-0.502,1.145-0.753,1.975-0.753c1.291,0,2.186,0.41,2.68,1.231c0.494,0.822,0.742,1.858,0.742,3.11
			c0,1.253-0.113,2.664-0.336,4.235s-0.574,3.154-1.053,4.749c-1.068,3.589-2.568,6.46-4.498,8.613
			c-2.297,2.552-5.053,3.828-8.266,3.828c-3.215,0-5.109-1.372-5.684-4.115c-1.818,2.743-4.139,4.115-6.961,4.115
			c-1.469,0-2.713-0.463-3.732-1.388c-1.006-0.925-1.508-2.417-1.508-4.474c0-0.926,0.127-1.994,0.383-3.207l3.326-15.719h7.057
			l-3.516,16.652C446.514,264.976,446.465,265.39,446.465,265.805z"/>
		<path fill="#FFCB01" d="M496.631,263.627c-2.105,6.046-5.621,9.068-10.551,9.068c-1.291,0-2.447-0.463-3.469-1.388
			c-1.006-0.925-1.508-2.417-1.508-4.474c0-0.926,0.129-1.994,0.383-3.207l2.943-13.757h-1.627l0.406-1.962h1.604l1.482-6.771
			l7.25-0.98l-1.674,7.752h2.941l-0.383,1.962h-2.941l-3.135,14.69c-0.127,0.59-0.191,1.172-0.191,1.746
			c0,1.102,0.662,1.651,1.986,1.651c0.957,0,1.846-0.415,2.668-1.244c0.82-0.829,1.406-1.858,1.758-3.087H496.631z"/>
		<path fill="#FFCB01" d="M521.764,263.627c-2.074,6.046-5.352,9.068-9.834,9.068c-2.887,0-4.49-1.499-4.809-4.498
			c-2.139,2.999-4.631,4.498-7.479,4.498c-2.846,0-4.781-1.396-5.801-4.188c-0.367-1.004-0.551-2.148-0.551-3.433
			s0.111-2.568,0.336-3.853c0.223-1.283,0.564-2.563,1.027-3.84c1.021-2.808,2.48-5.128,4.379-6.963
			c1.898-1.834,4.188-2.751,6.867-2.751c1.402,0,2.416,0.235,3.039,0.706c0.621,0.471,0.932,1.064,0.932,1.782v0.358l0.527-2.607
			h7.059l-3.518,16.652c-0.145,0.559-0.215,1.085-0.215,1.579c0,1.403,0.67,2.105,2.01,2.105c1.738,0,3.063-1.539,3.971-4.618
			H521.764z M509.418,252.574c0-0.304-0.141-0.69-0.42-1.161c-0.279-0.47-0.873-0.706-1.781-0.706c-0.91,0-1.795,0.487-2.656,1.46
			c-2.074,2.345-3.373,5.71-3.9,10.097c-0.08,0.67-0.119,1.38-0.119,2.129c0,1.452,0.303,2.465,0.908,3.039
			c0.352,0.351,0.791,0.526,1.316,0.526c0.973,0,1.857-0.387,2.656-1.16c0.797-0.773,1.348-1.831,1.65-3.171L509.418,252.574z"/>
		<path fill="#FFCB01" d="M537.73,265.853c0,1.403,0.598,2.105,1.795,2.105c1.1,0,1.945-0.351,2.535-1.053s1.172-1.794,1.746-3.278
			h2.059c-1.898,5.504-4.467,8.494-7.705,8.973c-0.51,0.063-1.141,0.096-1.889,0.096c-0.75,0-1.492-0.159-2.227-0.479
			c-2.041-0.861-3.063-2.544-3.063-5.049c0-1.34,0.367-3.477,1.102-6.412c0.732-2.935,1.1-4.96,1.1-6.076
			c0-1.676-0.59-2.513-1.77-2.513c-1.182,0-2.234,0.933-3.158,2.8c-0.271,0.525-0.494,1.1-0.67,1.723l-3.326,15.719h-7.059
			l5.193-24.5h7.057l-0.525,2.536c1.594-1.818,3.5-2.728,5.719-2.728c1.563,0,2.861,0.431,3.898,1.292s1.557,2.138,1.557,3.828
			s-0.271,3.604-0.814,5.742l-1.172,4.737C537.857,264.354,537.73,265.198,537.73,265.853z"/>
		<path fill="#FFCB01" d="M570.613,263.627c-2.041,6.046-5.049,9.068-9.02,9.068c-2.043,0-3.582-0.482-4.619-1.447
			c-1.035-0.965-1.555-2.341-1.555-4.127c0-0.75,0.096-1.604,0.287-2.561l0.406-1.914c0.129-0.686,0.191-1.284,0.191-1.795
			c0-1.578-0.59-2.368-1.77-2.368c-0.926,0-2.129,0.606-3.613,1.818l-2.561,12.106h-7.057l7.105-33.328l7.25-0.981l-3.662,17.251
			l9.451-7.441h4.857l-9.811,6.818c0.574-0.143,1.117-0.215,1.627-0.215c1.803,0,3.15,0.566,4.045,1.699
			c0.893,1.132,1.34,2.479,1.34,4.043c0,0.574-0.064,1.196-0.191,1.866l-0.551,2.44c-0.16,0.67-0.24,1.196-0.24,1.579
			c0,1.212,0.662,1.818,1.986,1.818s2.408-0.861,3.254-2.584c0.256-0.526,0.52-1.108,0.789-1.747H570.613z"/>
		<path fill="#FFCB01" d="M582.227,246.4c0.127,3.063,0.254,5.623,0.383,7.681l0.598,7.776c0.064,0.766,0.096,1.618,0.096,2.56
			s-0.148,1.83-0.443,2.668c-0.295,0.837-0.697,1.567-1.207,2.188c-0.941,1.181-2.154,2.046-3.637,2.597
			c-1.484,0.55-2.92,0.825-4.307,0.825c-2.426,0-4.26-0.626-5.504-1.878s-1.865-2.584-1.865-3.996c0-1.411,0.271-2.508,0.813-3.29
			c0.543-0.781,1.141-1.331,1.795-1.65c2.297-4.115,4.307-8.956,6.029-14.523L582.227,246.4z M571.508,268.819
			c3.125,0,4.689-1.516,4.689-4.546c0-0.846-0.064-1.842-0.191-2.99l-0.287-2.8c-0.176-1.786-0.328-3.725-0.455-5.813
			c-0.83,2.68-2.154,5.766-3.973,9.259c0.75,0.351,1.125,0.873,1.125,1.567c0,0.693-0.195,1.292-0.586,1.794
			c-0.391,0.503-0.918,0.754-1.578,0.754c-0.662,0-1.098-0.216-1.305-0.646C568.947,267.679,569.801,268.819,571.508,268.819z"/>
		<path fill="#FFCB01" d="M592.213,268.484c0,1.068-0.375,1.99-1.125,2.764s-1.664,1.16-2.74,1.16s-1.998-0.383-2.764-1.148
			s-1.148-1.687-1.148-2.764c0-1.076,0.383-1.993,1.148-2.751s1.688-1.137,2.764-1.137s1.99,0.379,2.74,1.137
			S592.213,267.416,592.213,268.484z M587.57,261.092l3.469-22.993h7.059l-6.363,22.993H587.57z"/>
	</g>
	<g>
		<line fill="#FFCB01" x1="631.269" y1="252.607" x2="738.336" y2="252.607"/>
		<rect x="631.269" y="250.607" fill="#FFCB01" width="107.067" height="4"/>
	</g>
	<g>
		<line fill="#FFCB01" x1="0" y1="252.607" x2="107.067" y2="252.607"/>
		<rect y="250.607" fill="#FFCB01" width="107.067" height="4"/>
	</g>
</g>
</svg>
